HIERARCHY
ROOT Hips
{
	OFFSET -0.001795 -0.223333 0.028219
	CHANNELS 6 Xposition Yposition Zposition Zrotation Yrotation Xrotation 
	JOINT LeftUpLeg
	{
		OFFSET 0.069520 -0.091406 -0.006815
		CHANNELS 3 Zrotation Yrotation Xrotation
		JOINT LeftLeg
		{
			OFFSET 0.034277 -0.375199 -0.004496
			CHANNELS 3 Zrotation Yrotation Xrotation
			JOINT LeftFoot
			{
				OFFSET -0.013596 -0.397961 -0.043693
				CHANNELS 3 Zrotation Yrotation Xrotation
				JOINT LeftToe
				{
					OFFSET 0.026358 -0.055791 0.119288
					CHANNELS 3 Zrotation Yrotation Xrotation
					End Site
					{
						OFFSET 0.000000 0.000000 0.000000
					}
				}
			}
		}
	}
	JOINT RightUpLeg
	{
		OFFSET -0.067670 -0.090522 -0.004320
		CHANNELS 3 Zrotation Yrotation Xrotation
		JOINT RightLeg
		{
			OFFSET -0.038290 -0.382569 -0.008850
			CHANNELS 3 Zrotation Yrotation Xrotation
			JOINT RightFoot
			{
				OFFSET 0.015774 -0.398415 -0.042312
				CHANNELS 3 Zrotation Yrotation Xrotation
				JOINT RightToe
				{
					OFFSET -0.025372 -0.048144 0.123348
					CHANNELS 3 Zrotation Yrotation Xrotation
					End Site
					{
						OFFSET 0.000000 0.000000 0.000000
					}
				}
			}
		}
	}
	JOINT Spine
	{
		OFFSET -0.002533 0.108963 -0.026696
		CHANNELS 3 Zrotation Yrotation Xrotation
		JOINT Spine1
		{
			OFFSET 0.005487 0.135180 0.001092
			CHANNELS 3 Zrotation Yrotation Xrotation
			JOINT Spine2
			{
				OFFSET 0.001457 0.052922 0.025425
				CHANNELS 3 Zrotation Yrotation Xrotation
				JOINT Neck
				{
					OFFSET -0.002778 0.213870 -0.042857
					CHANNELS 3 Zrotation Yrotation Xrotation
					JOINT Head
					{
						OFFSET 0.005152 0.064970 0.051349
						CHANNELS 3 Zrotation Yrotation Xrotation
						End Site
						{
							OFFSET 0.000000 0.000000 0.000000
						}
					}
				}
				JOINT LeftShoulder
				{
					OFFSET 0.078845 0.121749 -0.034090
					CHANNELS 3 Zrotation Yrotation Xrotation
					JOINT LeftArm
					{
						OFFSET 0.090977 0.030469 -0.008868
						CHANNELS 3 Zrotation Yrotation Xrotation
						JOINT LeftForeArm
						{
							OFFSET 0.259612 -0.012772 -0.027456
							CHANNELS 3 Zrotation Yrotation Xrotation
							JOINT LeftHand
							{
								OFFSET 0.249234 0.008986 -0.001171
								CHANNELS 3 Zrotation Yrotation Xrotation
								End Site
								{
									OFFSET 0.000000 0.000000 0.000000
								}
							}
						}
					}
				}
				JOINT RightShoulder
				{
					OFFSET -0.081759 0.118833 -0.038615
					CHANNELS 3 Zrotation Yrotation Xrotation
					JOINT RightArm
					{
						OFFSET -0.096012 0.032551 -0.009143
						CHANNELS 3 Zrotation Yrotation Xrotation
						JOINT RightForeArm
						{
							OFFSET -0.253742 -0.013329 -0.021401
							CHANNELS 3 Zrotation Yrotation Xrotation
							JOINT RightHand
							{
								OFFSET -0.255298 0.007772 -0.005559
								CHANNELS 3 Zrotation Yrotation Xrotation
								End Site
								{
									OFFSET 0.000000 0.000000 0.000000
								}
							}
						}
					}
				}
			}
		}
	}
}
MOTION
Frames: 5
Frame Time: 0.050000
0.000000 0.795396 0.000000 2.438644 -20.182432 0.777119 14.145376 7.090112 -47.472544 -8.905164 4.852632 32.806842 13.872303 21.687902 30.853184 0.000000 0.000000 0.000000 -11.407097 3.777296 -40.887539 26.192493 -7.402813 51.271358 -13.409095 -36.064159 -9.410948 0.000000 0.000000 0.000000 8.364563 -0.284834 68.341390 -1.385039 0.832312 5.637290 -8.131739 -3.255481 -2.758621 6.639100 -5.879575 5.019900 0.000000 0.000000 0.000000 -37.025401 -39.254675 28.584109 -27.977903 -21.202076 1.134133 18.696595 -29.740613 -3.806618 0.000000 0.000000 0.000000 35.433908 35.012453 21.507551 19.425505 22.184262 1.469290 -5.896781 18.516461 -0.245549 0.000000 0.000000 0.000000 
0.004536 0.787967 0.026151 0.267498 -21.087849 2.180728 16.230984 8.361088 -46.851225 -9.930431 5.679945 34.207975 19.087561 26.534349 33.088150 0.000000 0.000000 0.000000 -11.765658 4.071661 -42.290442 29.560750 -9.416016 54.101891 -13.492819 -35.937608 -7.361518 0.000000 0.000000 0.000000 7.096408 1.032297 69.386503 0.248502 -0.040156 6.696268 -7.611710 -1.343470 -2.466804 7.193289 -5.899242 1.809168 0.000000 0.000000 0.000000 -36.934042 -38.515080 27.185207 -25.387090 -20.495433 0.916855 20.076570 -33.997601 -4.806372 0.000000 0.000000 0.000000 31.269418 35.644125 21.557383 20.982593 23.949484 1.709515 -6.662640 21.498631 -0.447499 0.000000 0.000000 0.000000 
0.010995 0.786311 0.051646 0.025503 -21.859066 3.593610 14.072513 7.968894 -49.161955 -6.913681 4.927350 38.609840 19.764693 27.579406 30.478393 0.000000 0.000000 0.000000 -13.615530 3.962850 -43.936394 31.604151 -10.897965 56.151214 -13.858409 -36.094936 -4.391288 0.000000 0.000000 0.000000 5.323486 2.700268 70.068709 0.679826 -0.298162 3.789001 -7.564278 -0.608553 1.412837 6.208823 -5.425206 3.003783 0.000000 0.000000 0.000000 -33.665256 -39.873877 27.105260 -24.752724 -22.746989 1.060170 21.673286 -30.601493 -4.702206 0.000000 0.000000 0.000000 31.373183 37.325401 23.145761 18.421898 26.094548 1.383192 -5.934777 19.991133 -0.294042 0.000000 0.000000 0.000000 
0.018731 0.792516 0.075400 -1.278519 -22.182743 4.951303 13.611942 7.787126 -49.159000 -5.657545 4.486919 39.671946 20.359474 28.558195 28.332726 0.000000 0.000000 0.000000 -12.172940 4.456035 -43.971354 30.774147 -10.354208 56.532651 -16.487169 -39.917346 0.494583 0.000000 0.000000 0.000000 4.468017 3.454636 70.169360 1.240517 -0.578364 8.014985 -7.948412 -0.442328 -1.171010 6.431860 -5.222959 1.153378 0.000000 0.000000 0.000000 -31.739104 -42.532763 28.211156 -24.636752 -22.470693 1.174104 24.676094 -29.993404 -5.397445 0.000000 0.000000 0.000000 29.455242 40.274172 25.119137 18.578225 27.694469 1.619347 -8.835095 19.379660 -0.699885 0.000000 0.000000 0.000000 
0.027533 0.798039 0.098012 -2.021038 -22.263182 6.816154 12.758493 7.542686 -49.931358 -4.908743 4.572724 42.760876 16.655828 26.458064 17.998553 0.000000 0.000000 0.000000 -13.028232 4.227533 -43.619361 31.884860 -10.706839 54.949185 -17.425932 -41.267947 1.800724 0.000000 0.000000 0.000000 3.390522 4.235063 69.546990 -0.195873 0.216940 6.943438 -6.701672 -0.079177 0.224887 5.407490 -4.477956 1.525981 0.000000 0.000000 0.000000 -31.242192 -43.662842 29.226924 -22.848346 -21.534971 0.727911 25.572294 -30.449766 -5.711227 0.000000 0.000000 0.000000 29.054614 41.082598 25.594610 17.510324 28.993533 1.497686 -9.501153 20.412213 -0.848414 0.000000 0.000000 0.000000 
